<svg xmlns="http://www.w3.org/2000/svg" viewBox="720 300 500 450">   <path class="st0" d="M1190.3,744.27c-12.72-0.23-25.43-0.14-38.15-0.14c-24.77,0-49.54-0.06-74.31,0.04
      c-1.52,0.01-3.07,0-4.48-0.54c-3.2-1.22-4.79-4.68-6.88-7.14c-2.86-3.37-5.66-6.79-8.43-10.24c-6.02-7.47-12.04-14.94-18.16-22.33
      c-6.82-8.21-13.73-16.35-20.53-24.57c-0.48-0.57-0.95-1.15-1.43-1.72c-6.99-8.47-13.97-16.94-20.96-25.41
      c-3.49-4.23-6.99-8.47-10.48-12.7c-1.75-2.12-3.49-4.24-5.24-6.36c-1.02-1.23-4.34-4.21-3.86-5.58c0.55-1.52,2.91-3.45,3.99-4.74
      c1.77-2.09,3.53-4.19,5.3-6.29c3.53-4.19,7.06-8.39,10.59-12.59c7.06-8.39,14.12-16.78,21.18-25.17
      c6.99-8.3,13.97-16.61,20.96-24.92c3.53-4.19,7.06-8.39,10.59-12.58c1.77-2.1,3.53-4.2,5.3-6.3c0.8-0.95,1.69-1.82,2.51-2.75
      c0.85-0.95,1.47-1.99,2.34-2.92c0.05-0.05,0.09-0.09,0.14-0.13c0,0.56,19.41,22.71,21.18,24.79
      c35.02,40.97,68.75,83.11,105.36,122.68c0.8,0.87,1.52,1.82,2.27,2.73c1.1,1.34,2.2,2.68,3.3,4.02c1.57,1.9,1.11,3.8,1.11,6.12
      c0,2.85,0,5.71,0.01,8.56c0.01,13.99,0.17,27.98,0.32,41.96c0.02,1.43-0.11,3.13-1.34,3.85
      C1191.85,744.29,1191.05,744.29,1190.3,744.27z" style="fill:#fff"/>
    <path class="st0" d="M1125.6,376.32c1.12,0.54,0.72,2.51,0.72,4.08c0,6.17,0,12.34,0,18.5c0,10.83,0,21.65,0,32.47
      c0,3.57,0,7.13,0,10.7c0,1.26,0.09,1.82-0.62,2.84c-3.08,4.45-7.11,8.47-10.59,12.62c-3.75,3.75-6.96,8.29-10.38,12.35
      c-3.53,4.21-7.06,8.41-10.59,12.61c-6.91,8.23-13.83,16.47-20.8,24.65c-7.41,8.71-14.63,17.55-22.01,26.31
      c-13.91,16.54-27.85,33.06-41.77,49.59c-13.98,16.59-27.9,33.21-41.89,49.8c-14.11,16.72-28.39,33.31-42.32,50.17
      c-3.28,3.97-6.26,8.48-9.9,12.12c-6.94,8.33-13.85,16.69-20.72,25.07c-4.39,5.37-8.78,10.74-13.15,16.13
      c-5.84,8.77-13.51,16.68-20.15,24.87c-0.76,0.93-1.55,1.89-2.64,2.39c-1.04,0.49-2.23,0.49-3.38,0.49
      c-20.25-0.01-40.5-0.03-60.76-0.01c-6.69,0.01-13.38,0.01-20.07,0.02c-8.34,0.01-16.69-0.02-25.03-0.04
      c-0.62,0-1.34-0.05-1.71-0.55c-0.26-0.35-0.27-0.8-0.27-1.23c0.01-17.99,0.03-35.99,0.03-53.98c0-3.48,0-6.97,0-10.46
      c0-2.39,1.39-3.47,2.97-5.35c3.53-4.2,7.06-8.39,10.59-12.59c13.85-16.54,27.78-33.01,41.64-49.54c0.83-1,1.67-2,2.51-3
      c13.92-16.56,27.89-33.06,41.79-49.62c0.84-1,1.67-2,2.51-3c13.86-16.52,27.43-33.42,41.53-49.7c5.36-6.19,10.7-12.4,16.01-18.63
      c2.62-3.07,5.24-6.15,7.85-9.23c1.34-1.59,2.67-3.17,4.01-4.75c1.15-1.37,2.99-2.91,3.79-4.5c13.96-16.6,27.79-33.28,41.6-50
      c4.95-5.99,9.9-11.98,14.84-17.97c2.51-3.04,5.02-6.08,7.53-9.11c0.96-1.17,1.85-2.17,2.7-3.12c1.06-1.19,1.57-2.68,2.84-3.8
      c4.06-5.09,8.17-10.14,12.34-15.15c0.78-0.95,1.56-1.9,2.34-2.86c2.05-2.54,4.09-5.09,6.14-7.64c1.9-2.37,3.23-2.04,6-2.04
      c1.42,0,2.85,0,4.27-0.01c5.49,0,10.97-0.01,16.46-0.01c10.97-0.01,21.94-0.02,32.91-0.03c8.88-0.01,17.77-0.02,26.65-0.03
      C1108.13,376.12,1116.96,376.32,1125.6,376.32z" style="fill:#fff"/>
    <path class="st0" d="M963.71,431.81c0.07,0.68-0.4,1.29-0.84,1.81c-6.29,7.38-12.68,14.68-18.9,22.12
      c-7.07,8.4-14.14,16.8-21.2,25.2c-7.15,8.16-13.98,16.61-20.96,24.91c-6.32,7.51-12.62,15.03-18.88,22.6
      c-0.49,0.58-1.06,1.22-1.82,1.28c-0.9,0.07-1.64-0.69-2.22-1.39c-6.5-7.73-13.06-15.4-19.66-23.06
      c-7.14-8.29-14.28-16.58-21.41-24.88c-14.26-16.59-28.5-33.21-42.73-49.84c-5.42-7.23-11.87-13.89-17.74-20.77
      c-4.97-5.83-9.76-11.91-15.12-17.4c-0.57-0.59-1.16-1.18-1.59-1.88c-0.24-0.38-0.43-0.8-0.69-1.17c-0.42-0.59-1-1.04-1.53-1.52
      c-0.84-0.77-1.56-1.63-2.29-2.49c-1.75-2.09-3.49-4.17-5.24-6.25c-1.05-1.26-2.92-2.79-3.29-4.36c-0.23-0.99,0-2.32,0-3.34
      c0-4.3,0-8.6,0-12.9c0-10.86,0-21.71,0-32.57c0-3.35,0-6.71,0-10.07c0,0,0.22,0,0.24,0c20.56,0,42.38-0.02,63.42-0.06
      c17.45-0.03,34.91-0.05,52.37-0.08c1.97-0.01,4.32-0.26,5.89,1.19c1.81,1.66,3.32,4.15,4.9,6.06c3.49,4.24,6.98,8.48,10.48,12.72
      c6.98,8.48,13.97,16.95,20.95,25.43c19.74,22.56,38.25,46.19,57.18,69.43c0.29,0.35,0.59,0.73,0.67,1.17
      C963.7,431.74,963.71,431.77,963.71,431.81z" style="fill:#fff"/></svg>